<svg id="Layer_1" data-name="Layer 1" xmlns="http://www.w3.org/2000/svg" xmlns:xlink="http://www.w3.org/1999/xlink" viewBox="0 0 1024 1024"><defs><style>.cls-1{fill:none;}.cls-2{clip-path:url(#clip-path);}.cls-3{fill:#050505;}.cls-4{fill:#173e61;}.cls-5{fill:#fefefe;}</style><clipPath id="clip-path"><rect class="cls-1" x="67.5" y="61.5" width="897" height="897" rx="100"/></clipPath></defs><title>glossarist-symbol</title><g class="cls-2"><path class="cls-3" d="M504.89,829.86c-1.49,14.15-2.93,27.76-4.46,42.27,13.26-1,12.21,7.43,11.26,16.4q-17.71,167.4-35.2,334.84c-1,9.65-5.69,14-15.37,12.73-19.49-2.59-39-4.89-58.44-7.94-9.65-1.51-11-9-10.08-17.34q6.86-64,13.57-128.12,10.77-102,21.5-204c.83-8,3.54-13.28,13.22-11.55,1.49-14.32,2.95-28.28,4.43-42.49-1.14-.34-2.19-1-3.12-.87-16.07,2.18-20.56-6.67-21.76-20.84-1.09-12.88-4.66-25.53-6.5-38.38-.87-6.1-3.5-8.92-9.35-11.08C268.19,703.16,186,568,203.83,423.63c17.18-139.34,130.29-251.49,270-267.74C630.63,137.65,774.69,237.53,812,390.34c40.34,165.16-61.24,332.1-227.24,373.25a218.45,218.45,0,0,1-30.26,5.66c-7.77.78-11.92,3.25-13.94,11.35-3.49,14-8.89,27.45-12.54,41.39-2,7.73-5.39,10.9-13.33,8.84C511.79,830.08,508.65,830.2,504.89,829.86Z"/><path class="cls-4" d="M361,430.15c1.36-2.16,3.56-1.4,5.42-1.4q209.86.09,419.72.07c9,0,11.87,3.66,12.35,11.77,4,66.72-11.5,128.32-49.4,183.63-37.31,54.45-87.36,92.65-150,114a273,273,0,0,1-114,13.23c-56.59-5.24-107.51-26-152.21-61.43-42.22-33.46-73.57-75.36-92.63-125.48-17.87-47-23.18-95.89-14.65-145.95q12-70.43,55.12-127.18C321.47,238,374.46,202.32,439.28,184.7c36-9.8,72.79-11.57,109.66-6.59,15.9,2.14,31.94,4.85,46.93,11.32,1.37,2.65,0,4.95-1.07,7.18-10.88,22.61-20.85,45.64-31.16,68.5-2.49,5.52-3.71,6.2-9.66,4.95-15.78-3.31-31.7-5.35-47.82-5a200,200,0,0,0-107.1,33.52c-29.47,19.4-52,45.18-67.73,76.61a200,200,0,0,0,7.75,192.27c25.11,41.4,60.7,70.25,106.67,85.6,52.92,17.68,104.77,14.09,154.49-11.18,42.18-21.44,73-54.15,92.07-97.69.85-1.94,2.13-3.82,1.57-6.27-2.59-1.72-5.55-1-8.35-1q-157.08-.06-314.16,0c-13.4,0-13.4,0-13.4-13.51q0-40.08,0-80.15a50,50,0,0,1,.35-8.65,8.64,8.64,0,0,1,1.89-4Z"/><path class="cls-5" d="M359.9,433.29V534.85H698c-12,31.74-29.77,58.87-55.2,80.2C583.27,665,515.68,679.62,442.41,653.4c-75.63-27.07-120-82.9-131.91-162.14C290.35,356.88,414.19,240.15,547.06,267.35c10.09,2.06,14.29.51,18.25-9.31,9.33-23.21,20.27-45.78,30.56-68.61,35,9.41,66.32,26.16,94.49,48.59C750,285.46,784.55,347.44,796,422.53c.32,2.1.34,4.25.58,7.3H712.47l-347.72.07c-1.25,0-2.5.17-3.76.25h-.2C359.79,431,360.6,432.36,359.9,433.29Z"/><path class="cls-5" d="M307.8,245c-31.89,31.08-56.81,66.82-73.33,108.37C166.7,523.78,269,715.41,448.35,753.94c160.44,34.45,318.1-66.28,353.93-226.35,9.63-43,9.81-86.14-.15-129.19a1.57,1.57,0,0,1,1.6.22c10.16,46.36,11.19,93-1.55,138.72C768.59,658,690.58,734.66,567.83,760c-168.08,34.69-330-80.1-354.76-250-14.85-101.74,16.73-189.26,89.47-261.91,1.4-1.4,3-2.61,4.48-3.9Q308.28,243.74,307.8,245Z"/><path class="cls-5" d="M447.7,824.25l54.84,5.31c-1.47,14.28-2.88,28-4.35,42.37l-55-4.65C444.71,852.88,446.18,838.86,447.7,824.25Z"/><path class="cls-5" d="M317.28,236a188.38,188.38,0,0,1,40.18-28.65Q336.84,220.9,317.28,236Z"/><path class="cls-4" d="M803.73,398.62l-1.6-.22q-7.18-23.58-14.36-47.16A176.66,176.66,0,0,1,803.73,398.62Z"/><path class="cls-4" d="M463.5,168.81c21.7-5,43.75-3.93,65.76-3.46C507.27,165.28,485.32,165.89,463.5,168.81Z"/><path class="cls-4" d="M389.8,189.35l23.45-9,.65,1.66-23.31,9.23C390.33,190.6,390.07,190,389.8,189.35Z"/><path class="cls-4" d="M460.69,169.91l-23.24,4.94-.33-1.56,23.22-5C460.46,168.86,460.58,169.38,460.69,169.91Z"/><path class="cls-4" d="M371.64,198.79l16.66-9,1.1,2.24-17.15,7.33c-.32,0-.59.5-.89.18C371.27,199.48,371.54,199.06,371.64,198.79Z"/><path class="cls-4" d="M435.09,175.67l-16.15,4.69c-.17-.54-.33-1.09-.49-1.64l16.22-4.83Z"/><path class="cls-5" d="M307,244.19l9.08-8.37,1.13,1.3L307.8,245Z"/><path class="cls-5" d="M365.06,203.6,359,207l-.48-.85,6-3.47Z"/><path class="cls-5" d="M372.25,199.39l-5.57,3.36-.52-.94,5.48-3Z"/><path class="cls-4" d="M787.18,349.93A6.84,6.84,0,0,1,786,348.8c-.07-.11.38-.58.59-.89L787.9,349Z"/><path class="cls-4" d="M413.78,180.52c2.59.24,2,.19,1.48.12a1.22,1.22,0,0,1,0-.33C415.8,180.22,416.35,180.14,413.78,180.52Z"/><path class="cls-3" d="M359.9,433.29c.06-1.1-1.09-2.56.89-3.13C360.49,431.21,360.19,432.25,359.9,433.29Z"/></g></svg>